# xmcd
#
# Track frame offsets:
#	150
#	17805
#	32396
#	45278
#	57322
#	72783
#	92348
#	106680
#	118912
#	134708
#
# Disc length: 1993 seconds
#
# Revision: 1
# Processed by: cddbd v1.5.2PL0 Copyright (c) Steve Scherf et al.
# Submitted via: audiograbber 1.83.01
#
DISCID=7a07c70a
DTITLE=Don Williams - New Moves
DYEAR=1986
DGENRE=Country
TTITLE0=Heartbreak In The Darkness
TTITLE1=I'll Never Be In Love Again
TTITLE2=Shot Full Of Love
TTITLE3=We Got Love
TTITLE4=Send Her Roses
TTITLE5=Senorita
TTITLE6=The Light In Your Eyes
TTITLE7=It's About Time
TTITLE8=Then It's Love
TTITLE9=We've Got A Good Fire Goin' On
EXTD=
EXTT0=
EXTT1=
EXTT2=
EXTT3=
EXTT4=
EXTT5=
EXTT6=
EXTT7=
EXTT8=
EXTT9=
PLAYORDER=
